<svg width="21" height="21" viewBox="0 0 21 21" fill="none" xmlns="http://www.w3.org/2000/svg">
<path fill-rule="evenodd" clip-rule="evenodd" d="M10.5949 20.4418C16.1642 20.4418 20.6791 15.9269 20.6791 10.3576C20.6791 4.78814 16.1642 0.273238 10.5949 0.273238C5.02543 0.273238 0.510529 4.78814 0.510529 10.3576C0.510529 15.9269 5.02543 20.4418 10.5949 20.4418" fill="#13C11E"/>
<path fill-rule="evenodd" clip-rule="evenodd" d="M10.5949 19.5841C15.6906 19.5841 19.8214 15.4532 19.8214 10.3576C19.8214 5.26175 15.6906 1.13089 10.5949 1.13089C5.49912 1.13089 1.36826 5.26175 1.36826 10.3576C1.36826 15.4532 5.49912 19.5841 10.5949 19.5841" fill="#13BD3D"/>
<path fill-rule="evenodd" clip-rule="evenodd" d="M7.86668 5.21181H14.1707C15.0101 5.21181 15.6969 5.8986 15.6969 6.73808V13.042L7.86668 5.21181ZM13.3479 15.5032H7.01902C6.17951 15.5032 5.49275 14.8164 5.49275 13.977V7.64806L13.3479 15.5032Z" fill="#0B7407"/>
</svg>
