<svg width="22" height="21" viewBox="0 0 22 21" fill="none" xmlns="http://www.w3.org/2000/svg">
<path fill-rule="evenodd" clip-rule="evenodd" d="M11.0286 20.4418C16.5979 20.4418 21.1128 15.9269 21.1128 10.3575C21.1128 4.78812 16.5979 0.273238 11.0286 0.273238C5.45914 0.273238 0.944244 4.78812 0.944244 10.3575C0.944244 15.9269 5.45914 20.4418 11.0286 20.4418" fill="#13C11E"/>
<path fill-rule="evenodd" clip-rule="evenodd" d="M11.0286 19.5841C16.1243 19.5841 20.2551 15.4532 20.2551 10.3575C20.2551 5.26182 16.1243 1.13095 11.0286 1.13095C5.93284 1.13095 1.80197 5.26182 1.80197 10.3575C1.80197 15.4532 5.93284 19.5841 11.0286 19.5841" fill="#13D13D"/>
<path fill-rule="evenodd" clip-rule="evenodd" d="M8.3004 5.21178H14.6044C15.4438 5.21178 16.1306 5.89863 16.1306 6.73811V13.042L8.3004 5.21178ZM13.7816 15.5032H7.45273C6.61323 15.5032 5.92647 14.8165 5.92647 13.977V7.64811L13.7816 15.5032Z" fill="#0B7407"/>
</svg>
