<svg width="21" height="22" viewBox="0 0 21 22" fill="none" xmlns="http://www.w3.org/2000/svg">
<path fill-rule="evenodd" clip-rule="evenodd" d="M10.1759 21.0634C15.7452 21.0634 20.2601 16.5484 20.2601 10.9791C20.2601 5.40973 15.7452 0.89482 10.1759 0.89482C4.60642 0.89482 0.0915222 5.40973 0.0915222 10.9791C0.0915222 16.5484 4.60642 21.0634 10.1759 21.0634" fill="#D52735"/>
<path fill-rule="evenodd" clip-rule="evenodd" d="M10.1759 20.2057C15.2714 20.2057 19.4023 16.0747 19.4023 10.9791C19.4023 5.88333 15.2714 1.75247 10.1759 1.75247C5.08011 1.75247 0.949249 5.88333 0.949249 10.9791C0.949249 16.0747 5.08011 20.2057 10.1759 20.2057" fill="#D52735"/>
<path fill-rule="evenodd" clip-rule="evenodd" d="M5.41945 14.5483L13.745 6.22276C14.0672 5.90048 14.5944 5.90048 14.9167 6.22276L14.9321 6.23824C15.2544 6.56045 15.2544 7.08768 14.9322 7.40989L6.60664 15.7354C6.28436 16.0577 5.7572 16.0577 5.43502 15.7354L5.41945 15.72C5.09724 15.3977 5.09724 14.8706 5.41945 14.5483" fill="#9F1D2B"/>
<path fill-rule="evenodd" clip-rule="evenodd" d="M6.60663 6.22276L14.9321 14.5483C15.2543 14.8705 15.2543 15.3977 14.9321 15.72L14.9166 15.7354C14.5944 16.0577 14.0672 16.0577 13.745 15.7354L5.41944 7.40989C5.09714 7.08768 5.09714 6.56045 5.41944 6.23824L5.43492 6.22276C5.7572 5.90048 6.28436 5.90048 6.60663 6.22276Z" fill="#9F1D2B"/>
</svg>
