<svg width="21" height="22" viewBox="0 0 21 22" fill="none" xmlns="http://www.w3.org/2000/svg">
<path fill-rule="evenodd" clip-rule="evenodd" d="M10.6959 21.0634C16.2651 21.0634 20.78 16.5485 20.78 10.9791C20.78 5.40971 16.2651 0.89482 10.6959 0.89482C5.12639 0.89482 0.611496 5.40971 0.611496 10.9791C0.611496 16.5485 5.12639 21.0634 10.6959 21.0634" fill="#D52735"/>
<path fill-rule="evenodd" clip-rule="evenodd" d="M10.6959 20.2057C15.7914 20.2057 19.9223 16.0748 19.9223 10.9791C19.9223 5.8834 15.7914 1.75254 10.6959 1.75254C5.60009 1.75254 1.46922 5.8834 1.46922 10.9791C1.46922 16.0748 5.60009 20.2057 10.6959 20.2057" fill="#F25056"/>
<path fill-rule="evenodd" clip-rule="evenodd" d="M5.93942 14.5483L14.265 6.22274C14.5872 5.90056 15.1143 5.90056 15.4367 6.22274L15.4521 6.23831C15.7744 6.5605 15.7744 7.08765 15.4522 7.40993L7.12661 15.7354C6.80434 16.0577 6.27718 16.0577 5.955 15.7354L5.93942 15.7201C5.61722 15.3978 5.61722 14.8705 5.93942 14.5483Z" fill="#9F1D2B"/>
<path fill-rule="evenodd" clip-rule="evenodd" d="M7.12661 6.22274L15.4521 14.5483C15.7743 14.8705 15.7743 15.3978 15.4521 15.72L15.4366 15.7354C15.1143 16.0577 14.5872 16.0577 14.265 15.7354L5.93942 7.40993C5.61712 7.08765 5.61712 6.5605 5.93942 6.23822L5.9549 6.22274C6.27717 5.90047 6.80433 5.90047 7.12661 6.22274Z" fill="#9F1D2B"/>
</svg>
